# xmcd CD database file
#
# Track frame offsets:
#	150
#	24469
#	49618
#	71505
#	94224
#	119251
#	150153
#	171368
#	186965
#	206234
#	233062
#	265980
#
# Disc length: 3804 seconds
#
# Revision: 0
# Processed by: cddbd v1.4PL0 Copyright (c) Steve Scherf et al.
# Submitted via: CDex 1.51
#
DISCID=a00eda0c
DTITLE=Jim Roberts Jazz Saxtet - Reflection
DYEAR=2002
DGENRE=Jazz
TTITLE0=Cottontail
TTITLE1=Blue Bossa
TTITLE2=Tenor Madness
TTITLE3=Come Sunday
TTITLE4=Dolphin Dance
TTITLE5=A Time For Love
TTITLE6=Cherokee
TTITLE7=Reflection
TTITLE8=Impressions
TTITLE9=Yesterdays
TTITLE10=I Remember Clifford
TTITLE11=Giant Steps
EXTD=YEAR: 2002
EXTT0=
EXTT1=
EXTT2=
EXTT3=
EXTT4=
EXTT5=
EXTT6=
EXTT7=
EXTT8=
EXTT9=
EXTT10=
EXTT11=
PLAYORDER=
